<svg xmlns="http://www.w3.org/2000/svg" viewBox="0 0 64 64" role="img" aria-label="Smart girl favicon">
  <defs>
    <linearGradient id="bg" x1="0" y1="0" x2="1" y2="1">
      <stop offset="0%" stop-color="#fff6d8" />
      <stop offset="100%" stop-color="#ffd8ef" />
    </linearGradient>
  </defs>
  <rect width="64" height="64" rx="16" fill="url(#bg)" />
  <path d="M16 38C16 27 23 18 32 18C41 18 48 27 48 38V44H16V38Z" fill="#2a1430" />
  <path d="M22 39C22 31 26.5 25 32 25C37.5 25 42 31 42 39V44H22V39Z" fill="#ffd39e" />
  <circle cx="28" cy="37" r="1.7" fill="#241228" />
  <circle cx="36" cy="37" r="1.7" fill="#241228" />
  <path d="M28 41C29.4 42.8 30.9 43.6 32 43.6C33.1 43.6 34.6 42.8 36 41" fill="none" stroke="#241228" stroke-width="1.8" stroke-linecap="round" />
  <path d="M21 30C21 21.5 26.5 15 33.5 15C40.5 15 46 21.5 46 30C46 30 42.5 26.5 38.5 25.5C35.5 24.8 32.8 25.6 30 27.2C27 29 23.8 30.2 21 30Z" fill="#3b1b47" />
  <path d="M24 11C24.6 8.6 26.7 7 29.2 7C31 7 32.2 7.9 33.1 9.1C34 7.9 35.2 7 37 7C39.5 7 41.6 8.6 42.2 11C42.7 13.2 41.7 15.1 40.2 16.3C38.7 17.6 36.6 18.2 35.1 18.2H31.1C29.6 18.2 27.5 17.6 26 16.3C24.5 15.1 23.5 13.2 24 11Z" fill="#ff4fb0" />
  <path d="M27.2 12.1C28.4 10.2 30.9 10.2 32.1 12.1M34.1 12.1C35.3 10.2 37.8 10.2 39 12.1M28 14.5H38.2" fill="none" stroke="#ffd7ef" stroke-width="1.2" stroke-linecap="round" />
  <path d="M49 15L50.1 17.8L53 19L50.1 20.2L49 23L47.9 20.2L45 19L47.9 17.8Z" fill="#ff4fb0" />
</svg>
